<svg xmlns="http://www.w3.org/2000/svg" version="1.1" xmlns:xlink="http://www.w3.org/1999/xlink" xmlns:svgjs="http://svgjs.com/svgjs" width="1440" height="560" preserveAspectRatio="none" viewBox="0 0 1440 560"><g mask="url(&quot;#SvgjsMask1234&quot;)" fill="none"><rect width="1440" height="560" x="0" y="0" fill="url(#SvgjsRadialGradient1235)"></rect><path d="M-61.19 391.18L-61.19 391.18" stroke="rgba(170, 158, 23, 1)" stroke-width="1.5"></path><path d="M-61.19 391.18L-112.05 519.19" stroke="rgba(170, 158, 23, 1)" stroke-width="1.5"></path><path d="M-61.19 391.18L81.77 364.24" stroke="rgba(170, 158, 23, 1)" stroke-width="1.5"></path><path d="M-112.05 519.19L-112.05 519.19" stroke="rgba(170, 158, 23, 1)" stroke-width="1.5"></path><path d="M-112.05 519.19L-59.89 677.97" stroke="rgba(170, 158, 23, 1)" stroke-width="1.5"></path><path d="M-112.05 519.19L76.87 503.49" stroke="rgba(170, 158, 23, 1)" stroke-width="1.5"></path><path d="M-112.05 519.19L81.77 364.24" stroke="rgba(170, 158, 23, 1)" stroke-width="1.5"></path><path d="M-112.05 519.19L49.63 707.91" stroke="rgba(170, 158, 23, 1)" stroke-width="1.5"></path><path d="M-112.05 519.19L214.4 489.13" stroke="rgba(170, 158, 23, 1)" stroke-width="1.5"></path><path d="M-59.89 677.97L-59.89 677.97" stroke="rgba(170, 158, 23, 1)" stroke-width="1.5"></path><path d="M-59.89 677.97L49.63 707.91" stroke="rgba(170, 158, 23, 1)" stroke-width="1.5"></path><path d="M-59.89 677.97L76.87 503.49" stroke="rgba(170, 158, 23, 1)" stroke-width="1.5"></path><path d="M81.77 364.24L81.77 364.24" stroke="rgba(170, 158, 23, 1)" stroke-width="1.5"></path><path d="M81.77 364.24L190.92 390.8" stroke="rgba(170, 158, 23, 1)" stroke-width="1.5"></path><path d="M81.77 364.24L76.87 503.49" stroke="rgba(170, 158, 23, 1)" stroke-width="1.5"></path><path d="M81.77 364.24L214.4 489.13" stroke="rgba(170, 158, 23, 1)" stroke-width="1.5"></path><path d="M76.87 503.49L76.87 503.49" stroke="rgba(170, 158, 23, 1)" stroke-width="1.5"></path><path d="M76.87 503.49L214.4 489.13" stroke="rgba(170, 158, 23, 1)" stroke-width="1.5"></path><path d="M76.87 503.49L190.92 390.8" stroke="rgba(170, 158, 23, 1)" stroke-width="1.5"></path><path d="M49.63 707.91L49.63 707.91" stroke="rgba(170, 158, 23, 1)" stroke-width="1.5"></path><path d="M49.63 707.91L237 644.89" stroke="rgba(170, 158, 23, 1)" stroke-width="1.5"></path><path d="M49.63 707.91L76.87 503.49" stroke="rgba(170, 158, 23, 1)" stroke-width="1.5"></path><path d="M190.92 390.8L190.92 390.8" stroke="rgba(170, 158, 23, 1)" stroke-width="1.5"></path><path d="M190.92 390.8L214.4 489.13" stroke="rgba(170, 158, 23, 1)" stroke-width="1.5"></path><path d="M190.92 390.8L391.25 394.91" stroke="rgba(170, 158, 23, 1)" stroke-width="1.5"></path><path d="M190.92 390.8L-61.19 391.18" stroke="rgba(170, 158, 23, 1)" stroke-width="1.5"></path><path d="M190.92 390.8L237 644.89" stroke="rgba(170, 158, 23, 1)" stroke-width="1.5"></path><path d="M214.4 489.13L214.4 489.13" stroke="rgba(170, 158, 23, 1)" stroke-width="1.5"></path><path d="M214.4 489.13L237 644.89" stroke="rgba(170, 158, 23, 1)" stroke-width="1.5"></path><path d="M214.4 489.13L391.25 394.91" stroke="rgba(170, 158, 23, 1)" stroke-width="1.5"></path><path d="M237 644.89L237 644.89" stroke="rgba(170, 158, 23, 1)" stroke-width="1.5"></path><path d="M237 644.89L385.81 657.43" stroke="rgba(170, 158, 23, 1)" stroke-width="1.5"></path><path d="M237 644.89L409.58 559.83" stroke="rgba(170, 158, 23, 1)" stroke-width="1.5"></path><path d="M237 644.89L76.87 503.49" stroke="rgba(170, 158, 23, 1)" stroke-width="1.5"></path><path d="M391.25 394.91L391.25 394.91" stroke="rgba(170, 158, 23, 1)" stroke-width="1.5"></path><path d="M391.25 394.91L541.92 408.21" stroke="rgba(170, 158, 23, 1)" stroke-width="1.5"></path><path d="M391.25 394.91L409.58 559.83" stroke="rgba(170, 158, 23, 1)" stroke-width="1.5"></path><path d="M391.25 394.91L544.41 558.02" stroke="rgba(170, 158, 23, 1)" stroke-width="1.5"></path><path d="M409.58 559.83L409.58 559.83" stroke="rgba(170, 158, 23, 1)" stroke-width="1.5"></path><path d="M409.58 559.83L385.81 657.43" stroke="rgba(170, 158, 23, 1)" stroke-width="1.5"></path><path d="M409.58 559.83L496.41 641.4" stroke="rgba(170, 158, 23, 1)" stroke-width="1.5"></path><path d="M385.81 657.43L385.81 657.43" stroke="rgba(170, 158, 23, 1)" stroke-width="1.5"></path><path d="M385.81 657.43L496.41 641.4" stroke="rgba(170, 158, 23, 1)" stroke-width="1.5"></path><path d="M541.92 408.21L541.92 408.21" stroke="rgba(170, 158, 23, 1)" stroke-width="1.5"></path><path d="M541.92 408.21L663.94 392.79" stroke="rgba(170, 158, 23, 1)" stroke-width="1.5"></path><path d="M541.92 408.21L544.41 558.02" stroke="rgba(170, 158, 23, 1)" stroke-width="1.5"></path><path d="M541.92 408.21L673.65 535.5" stroke="rgba(170, 158, 23, 1)" stroke-width="1.5"></path><path d="M541.92 408.21L409.58 559.83" stroke="rgba(170, 158, 23, 1)" stroke-width="1.5"></path><path d="M544.41 558.02L544.41 558.02" stroke="rgba(170, 158, 23, 1)" stroke-width="1.5"></path><path d="M544.41 558.02L496.41 641.4" stroke="rgba(170, 158, 23, 1)" stroke-width="1.5"></path><path d="M544.41 558.02L673.65 535.5" stroke="rgba(170, 158, 23, 1)" stroke-width="1.5"></path><path d="M544.41 558.02L409.58 559.83" stroke="rgba(170, 158, 23, 1)" stroke-width="1.5"></path><path d="M496.41 641.4L496.41 641.4" stroke="rgba(170, 158, 23, 1)" stroke-width="1.5"></path><path d="M496.41 641.4L679.55 707.38" stroke="rgba(170, 158, 23, 1)" stroke-width="1.5"></path><path d="M496.41 641.4L673.65 535.5" stroke="rgba(170, 158, 23, 1)" stroke-width="1.5"></path><path d="M683.95 260.55L683.95 260.55" stroke="rgba(170, 158, 23, 1)" stroke-width="1.5"></path><path d="M683.95 260.55L792.45 218.2" stroke="rgba(170, 158, 23, 1)" stroke-width="1.5"></path><path d="M683.95 260.55L663.94 392.79" stroke="rgba(170, 158, 23, 1)" stroke-width="1.5"></path><path d="M663.94 392.79L663.94 392.79" stroke="rgba(170, 158, 23, 1)" stroke-width="1.5"></path><path d="M673.65 535.5L673.65 535.5" stroke="rgba(170, 158, 23, 1)" stroke-width="1.5"></path><path d="M673.65 535.5L793.02 491.5" stroke="rgba(170, 158, 23, 1)" stroke-width="1.5"></path><path d="M673.65 535.5L663.94 392.79" stroke="rgba(170, 158, 23, 1)" stroke-width="1.5"></path><path d="M673.65 535.5L679.55 707.38" stroke="rgba(170, 158, 23, 1)" stroke-width="1.5"></path><path d="M679.55 707.38L679.55 707.38" stroke="rgba(170, 158, 23, 1)" stroke-width="1.5"></path><path d="M679.55 707.38L544.41 558.02" stroke="rgba(170, 158, 23, 1)" stroke-width="1.5"></path><path d="M841.59 111.35L841.59 111.35" stroke="rgba(170, 158, 23, 1)" stroke-width="1.5"></path><path d="M841.59 111.35L792.45 218.2" stroke="rgba(170, 158, 23, 1)" stroke-width="1.5"></path><path d="M841.59 111.35L967.78 210.8" stroke="rgba(170, 158, 23, 1)" stroke-width="1.5"></path><path d="M841.59 111.35L992.5 45.07" stroke="rgba(170, 158, 23, 1)" stroke-width="1.5"></path><path d="M841.59 111.35L683.95 260.55" stroke="rgba(170, 158, 23, 1)" stroke-width="1.5"></path><path d="M792.45 218.2L792.45 218.2" stroke="rgba(170, 158, 23, 1)" stroke-width="1.5"></path><path d="M792.45 218.2L967.78 210.8" stroke="rgba(170, 158, 23, 1)" stroke-width="1.5"></path><path d="M860.34 404.58L860.34 404.58" stroke="rgba(170, 158, 23, 1)" stroke-width="1.5"></path><path d="M860.34 404.58L940.64 403.08" stroke="rgba(170, 158, 23, 1)" stroke-width="1.5"></path><path d="M860.34 404.58L793.02 491.5" stroke="rgba(170, 158, 23, 1)" stroke-width="1.5"></path><path d="M860.34 404.58L959.03 509.62" stroke="rgba(170, 158, 23, 1)" stroke-width="1.5"></path><path d="M860.34 404.58L663.94 392.79" stroke="rgba(170, 158, 23, 1)" stroke-width="1.5"></path><path d="M860.34 404.58L792.45 218.2" stroke="rgba(170, 158, 23, 1)" stroke-width="1.5"></path><path d="M793.02 491.5L793.02 491.5" stroke="rgba(170, 158, 23, 1)" stroke-width="1.5"></path><path d="M961.43 -112.17L961.43 -112.17" stroke="rgba(170, 158, 23, 1)" stroke-width="1.5"></path><path d="M961.43 -112.17L1111.68 -57.02" stroke="rgba(170, 158, 23, 1)" stroke-width="1.5"></path><path d="M961.43 -112.17L992.5 45.07" stroke="rgba(170, 158, 23, 1)" stroke-width="1.5"></path><path d="M961.43 -112.17L1148.7 40.11" stroke="rgba(170, 158, 23, 1)" stroke-width="1.5"></path><path d="M961.43 -112.17L841.59 111.35" stroke="rgba(170, 158, 23, 1)" stroke-width="1.5"></path><path d="M992.5 45.07L992.5 45.07" stroke="rgba(170, 158, 23, 1)" stroke-width="1.5"></path><path d="M992.5 45.07L1148.7 40.11" stroke="rgba(170, 158, 23, 1)" stroke-width="1.5"></path><path d="M992.5 45.07L1111.68 -57.02" stroke="rgba(170, 158, 23, 1)" stroke-width="1.5"></path><path d="M992.5 45.07L967.78 210.8" stroke="rgba(170, 158, 23, 1)" stroke-width="1.5"></path><path d="M967.78 210.8L967.78 210.8" stroke="rgba(170, 158, 23, 1)" stroke-width="1.5"></path><path d="M967.78 210.8L1099.05 240.72" stroke="rgba(170, 158, 23, 1)" stroke-width="1.5"></path><path d="M967.78 210.8L940.64 403.08" stroke="rgba(170, 158, 23, 1)" stroke-width="1.5"></path><path d="M940.64 403.08L940.64 403.08" stroke="rgba(170, 158, 23, 1)" stroke-width="1.5"></path><path d="M959.03 509.62L959.03 509.62" stroke="rgba(170, 158, 23, 1)" stroke-width="1.5"></path><path d="M959.03 509.62L940.64 403.08" stroke="rgba(170, 158, 23, 1)" stroke-width="1.5"></path><path d="M959.03 509.62L793.02 491.5" stroke="rgba(170, 158, 23, 1)" stroke-width="1.5"></path><path d="M959.03 509.62L943.53 679.76" stroke="rgba(170, 158, 23, 1)" stroke-width="1.5"></path><path d="M959.03 509.62L1122.99 370.32" stroke="rgba(170, 158, 23, 1)" stroke-width="1.5"></path><path d="M959.03 509.62L1108.71 696.98" stroke="rgba(170, 158, 23, 1)" stroke-width="1.5"></path><path d="M943.53 679.76L943.53 679.76" stroke="rgba(170, 158, 23, 1)" stroke-width="1.5"></path><path d="M943.53 679.76L1108.71 696.98" stroke="rgba(170, 158, 23, 1)" stroke-width="1.5"></path><path d="M943.53 679.76L793.02 491.5" stroke="rgba(170, 158, 23, 1)" stroke-width="1.5"></path><path d="M943.53 679.76L679.55 707.38" stroke="rgba(170, 158, 23, 1)" stroke-width="1.5"></path><path d="M943.53 679.76L940.64 403.08" stroke="rgba(170, 158, 23, 1)" stroke-width="1.5"></path><path d="M1111.68 -57.02L1111.68 -57.02" stroke="rgba(170, 158, 23, 1)" stroke-width="1.5"></path><path d="M1111.68 -57.02L1148.7 40.11" stroke="rgba(170, 158, 23, 1)" stroke-width="1.5"></path><path d="M1148.7 40.11L1148.7 40.11" stroke="rgba(170, 158, 23, 1)" stroke-width="1.5"></path><path d="M1148.7 40.11L1273.96 72.55" stroke="rgba(170, 158, 23, 1)" stroke-width="1.5"></path><path d="M1148.7 40.11L1288.96 -90.07" stroke="rgba(170, 158, 23, 1)" stroke-width="1.5"></path><path d="M1148.7 40.11L1099.05 240.72" stroke="rgba(170, 158, 23, 1)" stroke-width="1.5"></path><path d="M1148.7 40.11L1257.65 232.1" stroke="rgba(170, 158, 23, 1)" stroke-width="1.5"></path><path d="M1099.05 240.72L1099.05 240.72" stroke="rgba(170, 158, 23, 1)" stroke-width="1.5"></path><path d="M1099.05 240.72L1122.99 370.32" stroke="rgba(170, 158, 23, 1)" stroke-width="1.5"></path><path d="M1099.05 240.72L1257.65 232.1" stroke="rgba(170, 158, 23, 1)" stroke-width="1.5"></path><path d="M1099.05 240.72L1285.93 347.33" stroke="rgba(170, 158, 23, 1)" stroke-width="1.5"></path><path d="M1099.05 240.72L992.5 45.07" stroke="rgba(170, 158, 23, 1)" stroke-width="1.5"></path><path d="M1122.99 370.32L1122.99 370.32" stroke="rgba(170, 158, 23, 1)" stroke-width="1.5"></path><path d="M1108.71 696.98L1108.71 696.98" stroke="rgba(170, 158, 23, 1)" stroke-width="1.5"></path><path d="M1108.71 696.98L1272.16 671.38" stroke="rgba(170, 158, 23, 1)" stroke-width="1.5"></path><path d="M1288.96 -90.07L1288.96 -90.07" stroke="rgba(170, 158, 23, 1)" stroke-width="1.5"></path><path d="M1288.96 -90.07L1433.72 -64.37" stroke="rgba(170, 158, 23, 1)" stroke-width="1.5"></path><path d="M1288.96 -90.07L1273.96 72.55" stroke="rgba(170, 158, 23, 1)" stroke-width="1.5"></path><path d="M1288.96 -90.07L1111.68 -57.02" stroke="rgba(170, 158, 23, 1)" stroke-width="1.5"></path><path d="M1273.96 72.55L1273.96 72.55" stroke="rgba(170, 158, 23, 1)" stroke-width="1.5"></path><path d="M1273.96 72.55L1257.65 232.1" stroke="rgba(170, 158, 23, 1)" stroke-width="1.5"></path><path d="M1273.96 72.55L1446.87 88.8" stroke="rgba(170, 158, 23, 1)" stroke-width="1.5"></path><path d="M1273.96 72.55L1111.68 -57.02" stroke="rgba(170, 158, 23, 1)" stroke-width="1.5"></path><path d="M1273.96 72.55L1433.72 -64.37" stroke="rgba(170, 158, 23, 1)" stroke-width="1.5"></path><path d="M1257.65 232.1L1257.65 232.1" stroke="rgba(170, 158, 23, 1)" stroke-width="1.5"></path><path d="M1257.65 232.1L1285.93 347.33" stroke="rgba(170, 158, 23, 1)" stroke-width="1.5"></path><path d="M1285.93 347.33L1285.93 347.33" stroke="rgba(170, 158, 23, 1)" stroke-width="1.5"></path><path d="M1285.93 347.33L1389.79 403.39" stroke="rgba(170, 158, 23, 1)" stroke-width="1.5"></path><path d="M1285.93 347.33L1122.99 370.32" stroke="rgba(170, 158, 23, 1)" stroke-width="1.5"></path><path d="M1285.93 347.33L1305.9 555.92" stroke="rgba(170, 158, 23, 1)" stroke-width="1.5"></path><path d="M1305.9 555.92L1305.9 555.92" stroke="rgba(170, 158, 23, 1)" stroke-width="1.5"></path><path d="M1305.9 555.92L1272.16 671.38" stroke="rgba(170, 158, 23, 1)" stroke-width="1.5"></path><path d="M1305.9 555.92L1435.98 540.82" stroke="rgba(170, 158, 23, 1)" stroke-width="1.5"></path><path d="M1272.16 671.38L1272.16 671.38" stroke="rgba(170, 158, 23, 1)" stroke-width="1.5"></path><path d="M1272.16 671.38L1404.06 673.96" stroke="rgba(170, 158, 23, 1)" stroke-width="1.5"></path><path d="M1272.16 671.38L1435.98 540.82" stroke="rgba(170, 158, 23, 1)" stroke-width="1.5"></path><path d="M1433.72 -64.37L1433.72 -64.37" stroke="rgba(170, 158, 23, 1)" stroke-width="1.5"></path><path d="M1433.72 -64.37L1562.28 -95.86" stroke="rgba(170, 158, 23, 1)" stroke-width="1.5"></path><path d="M1433.72 -64.37L1446.87 88.8" stroke="rgba(170, 158, 23, 1)" stroke-width="1.5"></path><path d="M1433.72 -64.37L1566.82 77.53" stroke="rgba(170, 158, 23, 1)" stroke-width="1.5"></path><path d="M1446.87 88.8L1446.87 88.8" stroke="rgba(170, 158, 23, 1)" stroke-width="1.5"></path><path d="M1446.87 88.8L1566.82 77.53" stroke="rgba(170, 158, 23, 1)" stroke-width="1.5"></path><path d="M1446.87 88.8L1539.64 211.63" stroke="rgba(170, 158, 23, 1)" stroke-width="1.5"></path><path d="M1446.87 88.8L1562.28 -95.86" stroke="rgba(170, 158, 23, 1)" stroke-width="1.5"></path><path d="M1446.87 88.8L1257.65 232.1" stroke="rgba(170, 158, 23, 1)" stroke-width="1.5"></path><path d="M1389.79 403.39L1389.79 403.39" stroke="rgba(170, 158, 23, 1)" stroke-width="1.5"></path><path d="M1389.79 403.39L1435.98 540.82" stroke="rgba(170, 158, 23, 1)" stroke-width="1.5"></path><path d="M1435.98 540.82L1435.98 540.82" stroke="rgba(170, 158, 23, 1)" stroke-width="1.5"></path><path d="M1435.98 540.82L1543.56 535.98" stroke="rgba(170, 158, 23, 1)" stroke-width="1.5"></path><path d="M1404.06 673.96L1404.06 673.96" stroke="rgba(170, 158, 23, 1)" stroke-width="1.5"></path><path d="M1404.06 673.96L1435.98 540.82" stroke="rgba(170, 158, 23, 1)" stroke-width="1.5"></path><path d="M1404.06 673.96L1542.16 674.85" stroke="rgba(170, 158, 23, 1)" stroke-width="1.5"></path><path d="M1562.28 -95.86L1562.28 -95.86" stroke="rgba(170, 158, 23, 1)" stroke-width="1.5"></path><path d="M1562.28 -95.86L1566.82 77.53" stroke="rgba(170, 158, 23, 1)" stroke-width="1.5"></path><path d="M1562.28 -95.86L1288.96 -90.07" stroke="rgba(170, 158, 23, 1)" stroke-width="1.5"></path><path d="M1562.28 -95.86L1539.64 211.63" stroke="rgba(170, 158, 23, 1)" stroke-width="1.5"></path><path d="M1562.28 -95.86L1273.96 72.55" stroke="rgba(170, 158, 23, 1)" stroke-width="1.5"></path><path d="M1566.82 77.53L1566.82 77.53" stroke="rgba(170, 158, 23, 1)" stroke-width="1.5"></path><path d="M1566.82 77.53L1539.64 211.63" stroke="rgba(170, 158, 23, 1)" stroke-width="1.5"></path><path d="M1539.64 211.63L1539.64 211.63" stroke="rgba(170, 158, 23, 1)" stroke-width="1.5"></path><path d="M1539.64 211.63L1610.9 395.05" stroke="rgba(170, 158, 23, 1)" stroke-width="1.5"></path><path d="M1610.9 395.05L1610.9 395.05" stroke="rgba(170, 158, 23, 1)" stroke-width="1.5"></path><path d="M1610.9 395.05L1543.56 535.98" stroke="rgba(170, 158, 23, 1)" stroke-width="1.5"></path><path d="M1543.56 535.98L1543.56 535.98" stroke="rgba(170, 158, 23, 1)" stroke-width="1.5"></path><path d="M1542.16 674.85L1542.16 674.85" stroke="rgba(170, 158, 23, 1)" stroke-width="1.5"></path><path d="M1542.16 674.85L1543.56 535.98" stroke="rgba(170, 158, 23, 1)" stroke-width="1.5"></path><path d="M1542.16 674.85L1435.98 540.82" stroke="rgba(170, 158, 23, 1)" stroke-width="1.5"></path><path d="M1542.16 674.85L1305.9 555.92" stroke="rgba(170, 158, 23, 1)" stroke-width="1.5"></path><path d="M1542.16 674.85L1272.16 671.38" stroke="rgba(170, 158, 23, 1)" stroke-width="1.5"></path><circle r="5" cx="-61.19" cy="391.18" fill="rgba(170, 158, 23, 1)"></circle><circle r="5" cx="-112.05" cy="519.19" fill="rgba(170, 158, 23, 1)"></circle><circle r="5" cx="-59.89" cy="677.97" fill="rgba(170, 158, 23, 1)"></circle><circle r="5" cx="81.77" cy="364.24" fill="rgba(170, 158, 23, 1)"></circle><circle r="5" cx="76.87" cy="503.49" fill="rgba(170, 158, 23, 1)"></circle><circle r="5" cx="49.63" cy="707.91" fill="rgba(170, 158, 23, 1)"></circle><circle r="5" cx="190.92" cy="390.8" fill="rgba(170, 158, 23, 1)"></circle><circle r="5" cx="214.4" cy="489.13" fill="rgba(170, 158, 23, 1)"></circle><circle r="5" cx="237" cy="644.89" fill="rgba(170, 158, 23, 1)"></circle><circle r="5" cx="391.25" cy="394.91" fill="rgba(170, 158, 23, 1)"></circle><circle r="5" cx="409.58" cy="559.83" fill="rgba(170, 158, 23, 1)"></circle><circle r="5" cx="385.81" cy="657.43" fill="rgba(170, 158, 23, 1)"></circle><circle r="5" cx="541.92" cy="408.21" fill="rgba(170, 158, 23, 1)"></circle><circle r="5" cx="544.41" cy="558.02" fill="rgba(170, 158, 23, 1)"></circle><circle r="5" cx="496.41" cy="641.4" fill="rgba(170, 158, 23, 1)"></circle><circle r="5" cx="683.95" cy="260.55" fill="rgba(170, 158, 23, 1)"></circle><circle r="5" cx="663.94" cy="392.79" fill="rgba(170, 158, 23, 1)"></circle><circle r="5" cx="673.65" cy="535.5" fill="rgba(170, 158, 23, 1)"></circle><circle r="5" cx="679.55" cy="707.38" fill="rgba(170, 158, 23, 1)"></circle><circle r="5" cx="841.59" cy="111.35" fill="rgba(170, 158, 23, 1)"></circle><circle r="5" cx="792.45" cy="218.2" fill="rgba(170, 158, 23, 1)"></circle><circle r="5" cx="860.34" cy="404.58" fill="rgba(170, 158, 23, 1)"></circle><circle r="5" cx="793.02" cy="491.5" fill="rgba(170, 158, 23, 1)"></circle><circle r="5" cx="961.43" cy="-112.17" fill="rgba(170, 158, 23, 1)"></circle><circle r="5" cx="992.5" cy="45.07" fill="rgba(170, 158, 23, 1)"></circle><circle r="5" cx="967.78" cy="210.8" fill="rgba(170, 158, 23, 1)"></circle><circle r="5" cx="940.64" cy="403.08" fill="rgba(170, 158, 23, 1)"></circle><circle r="5" cx="959.03" cy="509.62" fill="rgba(170, 158, 23, 1)"></circle><circle r="5" cx="943.53" cy="679.76" fill="rgba(170, 158, 23, 1)"></circle><circle r="5" cx="1111.68" cy="-57.02" fill="rgba(170, 158, 23, 1)"></circle><circle r="5" cx="1148.7" cy="40.11" fill="rgba(170, 158, 23, 1)"></circle><circle r="5" cx="1099.05" cy="240.72" fill="rgba(170, 158, 23, 1)"></circle><circle r="5" cx="1122.99" cy="370.32" fill="rgba(170, 158, 23, 1)"></circle><circle r="5" cx="1108.71" cy="696.98" fill="rgba(170, 158, 23, 1)"></circle><circle r="5" cx="1288.96" cy="-90.07" fill="rgba(170, 158, 23, 1)"></circle><circle r="5" cx="1273.96" cy="72.55" fill="rgba(170, 158, 23, 1)"></circle><circle r="5" cx="1257.65" cy="232.1" fill="rgba(170, 158, 23, 1)"></circle><circle r="5" cx="1285.93" cy="347.33" fill="rgba(170, 158, 23, 1)"></circle><circle r="5" cx="1305.9" cy="555.92" fill="rgba(170, 158, 23, 1)"></circle><circle r="5" cx="1272.16" cy="671.38" fill="rgba(170, 158, 23, 1)"></circle><circle r="5" cx="1433.72" cy="-64.37" fill="rgba(170, 158, 23, 1)"></circle><circle r="5" cx="1446.87" cy="88.8" fill="rgba(170, 158, 23, 1)"></circle><circle r="5" cx="1389.79" cy="403.39" fill="rgba(170, 158, 23, 1)"></circle><circle r="5" cx="1435.98" cy="540.82" fill="rgba(170, 158, 23, 1)"></circle><circle r="5" cx="1404.06" cy="673.96" fill="rgba(170, 158, 23, 1)"></circle><circle r="5" cx="1562.28" cy="-95.86" fill="rgba(170, 158, 23, 1)"></circle><circle r="5" cx="1566.82" cy="77.53" fill="rgba(170, 158, 23, 1)"></circle><circle r="5" cx="1539.64" cy="211.63" fill="rgba(170, 158, 23, 1)"></circle><circle r="5" cx="1610.9" cy="395.05" fill="rgba(170, 158, 23, 1)"></circle><circle r="5" cx="1543.56" cy="535.98" fill="rgba(170, 158, 23, 1)"></circle><circle r="5" cx="1542.16" cy="674.85" fill="rgba(170, 158, 23, 1)"></circle><path d="M240.96 664.62L240.96 664.62" stroke="hsl(146.7, 100%, 69.3%)" stroke-width="1.5"></path><path d="M240.96 664.62L377.78 701.01" stroke="hsl(146.7, 100%, 69.3%)" stroke-width="1.5"></path><path d="M240.96 664.62L240.27 518.68" stroke="hsl(146.7, 100%, 69.3%)" stroke-width="1.5"></path><path d="M826.39 654.83L826.39 654.83" stroke="hsl(146.7, 100%, 69.3%)" stroke-width="1.5"></path><path d="M826.39 654.83L818.71 515.04" stroke="hsl(146.7, 100%, 69.3%)" stroke-width="1.5"></path><path d="M826.39 654.83L680.98 695.92" stroke="hsl(146.7, 100%, 69.3%)" stroke-width="1.5"></path><path d="M826.39 654.83L694.25 554.2" stroke="hsl(146.7, 100%, 69.3%)" stroke-width="1.5"></path><path d="M826.39 654.83L992.9 707.82" stroke="hsl(146.7, 100%, 69.3%)" stroke-width="1.5"></path><path d="M826.39 654.83L556.85 640.03" stroke="hsl(146.7, 100%, 69.3%)" stroke-width="1.5"></path><path d="M826.39 654.83L849.14 346.19" stroke="hsl(146.7, 100%, 69.3%)" stroke-width="1.5"></path><path d="M966.07 371.67L966.07 371.67" stroke="hsl(146.7, 100%, 69.3%)" stroke-width="1.5"></path><path d="M966.07 371.67L849.14 346.19" stroke="hsl(146.7, 100%, 69.3%)" stroke-width="1.5"></path><path d="M966.07 371.67L1087.51 406.51" stroke="hsl(146.7, 100%, 69.3%)" stroke-width="1.5"></path><path d="M966.07 371.67L1109.05 239.39" stroke="hsl(146.7, 100%, 69.3%)" stroke-width="1.5"></path><path d="M966.07 371.67L818.71 515.04" stroke="hsl(146.7, 100%, 69.3%)" stroke-width="1.5"></path><path d="M966.07 371.67L1124.25 505.34" stroke="hsl(146.7, 100%, 69.3%)" stroke-width="1.5"></path><path d="M1442.27 211.18L1442.27 211.18" stroke="hsl(146.7, 100%, 69.3%)" stroke-width="1.5"></path><path d="M1442.27 211.18L1551.45 200.43" stroke="hsl(146.7, 100%, 69.3%)" stroke-width="1.5"></path><path d="M1442.27 211.18L1423.89 52.75" stroke="hsl(146.7, 100%, 69.3%)" stroke-width="1.5"></path><path d="M1404.3 407.23L1404.3 407.23" stroke="hsl(146.7, 100%, 69.3%)" stroke-width="1.5"></path><path d="M1404.3 407.23L1395.82 492.93" stroke="hsl(146.7, 100%, 69.3%)" stroke-width="1.5"></path><path d="M1404.3 407.23L1265.47 365.28" stroke="hsl(146.7, 100%, 69.3%)" stroke-width="1.5"></path><path d="M1556.88 -98.03L1556.88 -98.03" stroke="hsl(146.7, 100%, 69.3%)" stroke-width="1.5"></path><path d="M1556.88 -98.03L1436.17 -74.13" stroke="hsl(146.7, 100%, 69.3%)" stroke-width="1.5"></path><path d="M1556.88 -98.03L1561.94 72.02" stroke="hsl(146.7, 100%, 69.3%)" stroke-width="1.5"></path><path d="M1556.88 -98.03L1423.89 52.75" stroke="hsl(146.7, 100%, 69.3%)" stroke-width="1.5"></path><path d="M1573.12 341.3L1573.12 341.3" stroke="hsl(146.7, 100%, 69.3%)" stroke-width="1.5"></path><path d="M1573.12 341.3L1551.45 200.43" stroke="hsl(146.7, 100%, 69.3%)" stroke-width="1.5"></path><path d="M1573.12 341.3L1404.3 407.23" stroke="hsl(146.7, 100%, 69.3%)" stroke-width="1.5"></path><path d="M1573.12 341.3L1442.27 211.18" stroke="hsl(146.7, 100%, 69.3%)" stroke-width="1.5"></path><path d="M1573.12 341.3L1395.82 492.93" stroke="hsl(146.7, 100%, 69.3%)" stroke-width="1.5"></path><path d="M1573.12 341.3L1561.94 72.02" stroke="hsl(146.7, 100%, 69.3%)" stroke-width="1.5"></path><path d="M1573.12 341.3L1265.47 365.28" stroke="hsl(146.7, 100%, 69.3%)" stroke-width="1.5"></path><path d="M-64.48 518.92L-64.48 518.92" stroke="hsl(146.7, 100%, 69.3%)" stroke-width="1.5"></path><path d="M-64.48 518.92L-107.78 653.94" stroke="hsl(146.7, 100%, 69.3%)" stroke-width="1.5"></path><path d="M-64.48 518.92L77.87 534.59" stroke="hsl(146.7, 100%, 69.3%)" stroke-width="1.5"></path><path d="M-64.48 518.92L88.57 706.06" stroke="hsl(146.7, 100%, 69.3%)" stroke-width="1.5"></path><path d="M-64.48 518.92L240.27 518.68" stroke="hsl(146.7, 100%, 69.3%)" stroke-width="1.5"></path><path d="M-64.48 518.92L240.96 664.62" stroke="hsl(146.7, 100%, 69.3%)" stroke-width="1.5"></path><path d="M-107.78 653.94L-107.78 653.94" stroke="hsl(146.7, 100%, 69.3%)" stroke-width="1.5"></path><path d="M-107.78 653.94L88.57 706.06" stroke="hsl(146.7, 100%, 69.3%)" stroke-width="1.5"></path><path d="M-107.78 653.94L77.87 534.59" stroke="hsl(146.7, 100%, 69.3%)" stroke-width="1.5"></path><path d="M-107.78 653.94L240.96 664.62" stroke="hsl(146.7, 100%, 69.3%)" stroke-width="1.5"></path><path d="M77.87 534.59L77.87 534.59" stroke="hsl(146.7, 100%, 69.3%)" stroke-width="1.5"></path><path d="M77.87 534.59L240.27 518.68" stroke="hsl(146.7, 100%, 69.3%)" stroke-width="1.5"></path><path d="M77.87 534.59L88.57 706.06" stroke="hsl(146.7, 100%, 69.3%)" stroke-width="1.5"></path><path d="M77.87 534.59L240.96 664.62" stroke="hsl(146.7, 100%, 69.3%)" stroke-width="1.5"></path><path d="M88.57 706.06L88.57 706.06" stroke="hsl(146.7, 100%, 69.3%)" stroke-width="1.5"></path><path d="M88.57 706.06L240.96 664.62" stroke="hsl(146.7, 100%, 69.3%)" stroke-width="1.5"></path><path d="M240.27 518.68L240.27 518.68" stroke="hsl(146.7, 100%, 69.3%)" stroke-width="1.5"></path><path d="M240.27 518.68L398.55 532.63" stroke="hsl(146.7, 100%, 69.3%)" stroke-width="1.5"></path><path d="M240.27 518.68L377.78 701.01" stroke="hsl(146.7, 100%, 69.3%)" stroke-width="1.5"></path><path d="M240.27 518.68L88.57 706.06" stroke="hsl(146.7, 100%, 69.3%)" stroke-width="1.5"></path><path d="M240.27 518.68L493.75 533.12" stroke="hsl(146.7, 100%, 69.3%)" stroke-width="1.5"></path><path d="M398.55 532.63L398.55 532.63" stroke="hsl(146.7, 100%, 69.3%)" stroke-width="1.5"></path><path d="M398.55 532.63L493.75 533.12" stroke="hsl(146.7, 100%, 69.3%)" stroke-width="1.5"></path><path d="M398.55 532.63L377.78 701.01" stroke="hsl(146.7, 100%, 69.3%)" stroke-width="1.5"></path><path d="M398.55 532.63L556.85 640.03" stroke="hsl(146.7, 100%, 69.3%)" stroke-width="1.5"></path><path d="M398.55 532.63L240.96 664.62" stroke="hsl(146.7, 100%, 69.3%)" stroke-width="1.5"></path><path d="M398.55 532.63L694.25 554.2" stroke="hsl(146.7, 100%, 69.3%)" stroke-width="1.5"></path><path d="M377.78 701.01L377.78 701.01" stroke="hsl(146.7, 100%, 69.3%)" stroke-width="1.5"></path><path d="M377.78 701.01L556.85 640.03" stroke="hsl(146.7, 100%, 69.3%)" stroke-width="1.5"></path><path d="M377.78 701.01L493.75 533.12" stroke="hsl(146.7, 100%, 69.3%)" stroke-width="1.5"></path><path d="M493.75 533.12L493.75 533.12" stroke="hsl(146.7, 100%, 69.3%)" stroke-width="1.5"></path><path d="M493.75 533.12L556.85 640.03" stroke="hsl(146.7, 100%, 69.3%)" stroke-width="1.5"></path><path d="M556.85 640.03L556.85 640.03" stroke="hsl(146.7, 100%, 69.3%)" stroke-width="1.5"></path><path d="M556.85 640.03L680.98 695.92" stroke="hsl(146.7, 100%, 69.3%)" stroke-width="1.5"></path><path d="M556.85 640.03L694.25 554.2" stroke="hsl(146.7, 100%, 69.3%)" stroke-width="1.5"></path><path d="M676.72 380.28L676.72 380.28" stroke="hsl(146.7, 100%, 69.3%)" stroke-width="1.5"></path><path d="M676.72 380.28L694.25 554.2" stroke="hsl(146.7, 100%, 69.3%)" stroke-width="1.5"></path><path d="M694.25 554.2L694.25 554.2" stroke="hsl(146.7, 100%, 69.3%)" stroke-width="1.5"></path><path d="M694.25 554.2L818.71 515.04" stroke="hsl(146.7, 100%, 69.3%)" stroke-width="1.5"></path><path d="M694.25 554.2L680.98 695.92" stroke="hsl(146.7, 100%, 69.3%)" stroke-width="1.5"></path><path d="M680.98 695.92L680.98 695.92" stroke="hsl(146.7, 100%, 69.3%)" stroke-width="1.5"></path><path d="M680.98 695.92L818.71 515.04" stroke="hsl(146.7, 100%, 69.3%)" stroke-width="1.5"></path><path d="M680.98 695.92L493.75 533.12" stroke="hsl(146.7, 100%, 69.3%)" stroke-width="1.5"></path><path d="M680.98 695.92L377.78 701.01" stroke="hsl(146.7, 100%, 69.3%)" stroke-width="1.5"></path><path d="M849.14 346.19L849.14 346.19" stroke="hsl(146.7, 100%, 69.3%)" stroke-width="1.5"></path><path d="M849.14 346.19L818.71 515.04" stroke="hsl(146.7, 100%, 69.3%)" stroke-width="1.5"></path><path d="M849.14 346.19L676.72 380.28" stroke="hsl(146.7, 100%, 69.3%)" stroke-width="1.5"></path><path d="M849.14 346.19L1087.51 406.51" stroke="hsl(146.7, 100%, 69.3%)" stroke-width="1.5"></path><path d="M849.14 346.19L694.25 554.2" stroke="hsl(146.7, 100%, 69.3%)" stroke-width="1.5"></path><path d="M818.71 515.04L818.71 515.04" stroke="hsl(146.7, 100%, 69.3%)" stroke-width="1.5"></path><path d="M992.9 707.82L992.9 707.82" stroke="hsl(146.7, 100%, 69.3%)" stroke-width="1.5"></path><path d="M992.9 707.82L1124.25 505.34" stroke="hsl(146.7, 100%, 69.3%)" stroke-width="1.5"></path><path d="M992.9 707.82L818.71 515.04" stroke="hsl(146.7, 100%, 69.3%)" stroke-width="1.5"></path><path d="M992.9 707.82L1255.7 675.75" stroke="hsl(146.7, 100%, 69.3%)" stroke-width="1.5"></path><path d="M992.9 707.82L680.98 695.92" stroke="hsl(146.7, 100%, 69.3%)" stroke-width="1.5"></path><path d="M992.9 707.82L1087.51 406.51" stroke="hsl(146.7, 100%, 69.3%)" stroke-width="1.5"></path><path d="M1109.05 239.39L1109.05 239.39" stroke="hsl(146.7, 100%, 69.3%)" stroke-width="1.5"></path><path d="M1109.05 239.39L1240.44 208.49" stroke="hsl(146.7, 100%, 69.3%)" stroke-width="1.5"></path><path d="M1109.05 239.39L1087.51 406.51" stroke="hsl(146.7, 100%, 69.3%)" stroke-width="1.5"></path><path d="M1087.51 406.51L1087.51 406.51" stroke="hsl(146.7, 100%, 69.3%)" stroke-width="1.5"></path><path d="M1087.51 406.51L1124.25 505.34" stroke="hsl(146.7, 100%, 69.3%)" stroke-width="1.5"></path><path d="M1087.51 406.51L1265.47 365.28" stroke="hsl(146.7, 100%, 69.3%)" stroke-width="1.5"></path><path d="M1124.25 505.34L1124.25 505.34" stroke="hsl(146.7, 100%, 69.3%)" stroke-width="1.5"></path><path d="M1124.25 505.34L1267.33 523.98" stroke="hsl(146.7, 100%, 69.3%)" stroke-width="1.5"></path><path d="M1124.25 505.34L1265.47 365.28" stroke="hsl(146.7, 100%, 69.3%)" stroke-width="1.5"></path><path d="M1282.01 -85.02L1282.01 -85.02" stroke="hsl(146.7, 100%, 69.3%)" stroke-width="1.5"></path><path d="M1282.01 -85.02L1436.17 -74.13" stroke="hsl(146.7, 100%, 69.3%)" stroke-width="1.5"></path><path d="M1282.01 -85.02L1299.97 102.52" stroke="hsl(146.7, 100%, 69.3%)" stroke-width="1.5"></path><path d="M1282.01 -85.02L1423.89 52.75" stroke="hsl(146.7, 100%, 69.3%)" stroke-width="1.5"></path><path d="M1299.97 102.52L1299.97 102.52" stroke="hsl(146.7, 100%, 69.3%)" stroke-width="1.5"></path><path d="M1299.97 102.52L1240.44 208.49" stroke="hsl(146.7, 100%, 69.3%)" stroke-width="1.5"></path><path d="M1299.97 102.52L1423.89 52.75" stroke="hsl(146.7, 100%, 69.3%)" stroke-width="1.5"></path><path d="M1299.97 102.52L1442.27 211.18" stroke="hsl(146.7, 100%, 69.3%)" stroke-width="1.5"></path><path d="M1299.97 102.52L1436.17 -74.13" stroke="hsl(146.7, 100%, 69.3%)" stroke-width="1.5"></path><path d="M1240.44 208.49L1240.44 208.49" stroke="hsl(146.7, 100%, 69.3%)" stroke-width="1.5"></path><path d="M1240.44 208.49L1265.47 365.28" stroke="hsl(146.7, 100%, 69.3%)" stroke-width="1.5"></path><path d="M1240.44 208.49L1442.27 211.18" stroke="hsl(146.7, 100%, 69.3%)" stroke-width="1.5"></path><path d="M1240.44 208.49L1423.89 52.75" stroke="hsl(146.7, 100%, 69.3%)" stroke-width="1.5"></path><path d="M1240.44 208.49L1087.51 406.51" stroke="hsl(146.7, 100%, 69.3%)" stroke-width="1.5"></path><path d="M1265.47 365.28L1265.47 365.28" stroke="hsl(146.7, 100%, 69.3%)" stroke-width="1.5"></path><path d="M1265.47 365.28L1267.33 523.98" stroke="hsl(146.7, 100%, 69.3%)" stroke-width="1.5"></path><path d="M1265.47 365.28L1395.82 492.93" stroke="hsl(146.7, 100%, 69.3%)" stroke-width="1.5"></path><path d="M1267.33 523.98L1267.33 523.98" stroke="hsl(146.7, 100%, 69.3%)" stroke-width="1.5"></path><path d="M1267.33 523.98L1395.82 492.93" stroke="hsl(146.7, 100%, 69.3%)" stroke-width="1.5"></path><path d="M1267.33 523.98L1255.7 675.75" stroke="hsl(146.7, 100%, 69.3%)" stroke-width="1.5"></path><path d="M1255.7 675.75L1255.7 675.75" stroke="hsl(146.7, 100%, 69.3%)" stroke-width="1.5"></path><path d="M1255.7 675.75L1410.47 678.98" stroke="hsl(146.7, 100%, 69.3%)" stroke-width="1.5"></path><path d="M1436.17 -74.13L1436.17 -74.13" stroke="hsl(146.7, 100%, 69.3%)" stroke-width="1.5"></path><path d="M1436.17 -74.13L1423.89 52.75" stroke="hsl(146.7, 100%, 69.3%)" stroke-width="1.5"></path><path d="M1436.17 -74.13L1561.94 72.02" stroke="hsl(146.7, 100%, 69.3%)" stroke-width="1.5"></path><path d="M1423.89 52.75L1423.89 52.75" stroke="hsl(146.7, 100%, 69.3%)" stroke-width="1.5"></path><path d="M1423.89 52.75L1561.94 72.02" stroke="hsl(146.7, 100%, 69.3%)" stroke-width="1.5"></path><path d="M1395.82 492.93L1395.82 492.93" stroke="hsl(146.7, 100%, 69.3%)" stroke-width="1.5"></path><path d="M1410.47 678.98L1410.47 678.98" stroke="hsl(146.7, 100%, 69.3%)" stroke-width="1.5"></path><path d="M1410.47 678.98L1395.82 492.93" stroke="hsl(146.7, 100%, 69.3%)" stroke-width="1.5"></path><path d="M1410.47 678.98L1267.33 523.98" stroke="hsl(146.7, 100%, 69.3%)" stroke-width="1.5"></path><path d="M1410.47 678.98L1404.3 407.23" stroke="hsl(146.7, 100%, 69.3%)" stroke-width="1.5"></path><path d="M1410.47 678.98L1124.25 505.34" stroke="hsl(146.7, 100%, 69.3%)" stroke-width="1.5"></path><path d="M1410.47 678.98L1265.47 365.28" stroke="hsl(146.7, 100%, 69.3%)" stroke-width="1.5"></path><path d="M1561.94 72.02L1561.94 72.02" stroke="hsl(146.7, 100%, 69.3%)" stroke-width="1.5"></path><path d="M1561.94 72.02L1551.45 200.43" stroke="hsl(146.7, 100%, 69.3%)" stroke-width="1.5"></path><path d="M1561.94 72.02L1442.27 211.18" stroke="hsl(146.7, 100%, 69.3%)" stroke-width="1.5"></path><path d="M1551.45 200.43L1551.45 200.43" stroke="hsl(146.7, 100%, 69.3%)" stroke-width="1.5"></path><circle r="25" cx="240.96" cy="664.62" fill="url(#SvgjsRadialGradient1236)"></circle><circle r="25" cx="826.39" cy="654.83" fill="url(#SvgjsRadialGradient1236)"></circle><circle r="25" cx="966.07" cy="371.67" fill="url(#SvgjsRadialGradient1236)"></circle><circle r="25" cx="1442.27" cy="211.18" fill="url(#SvgjsRadialGradient1236)"></circle><circle r="25" cx="1404.3" cy="407.23" fill="url(#SvgjsRadialGradient1236)"></circle><circle r="25" cx="1556.88" cy="-98.03" fill="url(#SvgjsRadialGradient1236)"></circle><circle r="25" cx="1573.12" cy="341.3" fill="url(#SvgjsRadialGradient1236)"></circle><circle r="5" cx="-64.48" cy="518.92" fill="#88ffbd"></circle><circle r="5" cx="-107.78" cy="653.94" fill="#88ffbd"></circle><circle r="5" cx="77.87" cy="534.59" fill="#88ffbd"></circle><circle r="5" cx="88.57" cy="706.06" fill="#88ffbd"></circle><circle r="5" cx="240.27" cy="518.68" fill="#88ffbd"></circle><circle r="5" cx="398.55" cy="532.63" fill="#88ffbd"></circle><circle r="5" cx="377.78" cy="701.01" fill="#88ffbd"></circle><circle r="5" cx="493.75" cy="533.12" fill="#88ffbd"></circle><circle r="5" cx="556.85" cy="640.03" fill="#88ffbd"></circle><circle r="5" cx="676.72" cy="380.28" fill="#88ffbd"></circle><circle r="5" cx="694.25" cy="554.2" fill="#88ffbd"></circle><circle r="5" cx="680.98" cy="695.92" fill="#88ffbd"></circle><circle r="5" cx="849.14" cy="346.19" fill="#88ffbd"></circle><circle r="5" cx="818.71" cy="515.04" fill="#88ffbd"></circle><circle r="5" cx="992.9" cy="707.82" fill="#88ffbd"></circle><circle r="5" cx="1109.05" cy="239.39" fill="#88ffbd"></circle><circle r="5" cx="1087.51" cy="406.51" fill="#88ffbd"></circle><circle r="5" cx="1124.25" cy="505.34" fill="#88ffbd"></circle><circle r="5" cx="1282.01" cy="-85.02" fill="#88ffbd"></circle><circle r="5" cx="1299.97" cy="102.52" fill="#88ffbd"></circle><circle r="5" cx="1240.44" cy="208.49" fill="#88ffbd"></circle><circle r="5" cx="1265.47" cy="365.28" fill="#88ffbd"></circle><circle r="5" cx="1267.33" cy="523.98" fill="#88ffbd"></circle><circle r="5" cx="1255.7" cy="675.75" fill="#88ffbd"></circle><circle r="5" cx="1436.17" cy="-74.13" fill="#88ffbd"></circle><circle r="5" cx="1423.89" cy="52.75" fill="#88ffbd"></circle><circle r="5" cx="1395.82" cy="492.93" fill="#88ffbd"></circle><circle r="5" cx="1410.47" cy="678.98" fill="#88ffbd"></circle><circle r="5" cx="1561.94" cy="72.02" fill="#88ffbd"></circle><circle r="5" cx="1551.45" cy="200.43" fill="#88ffbd"></circle></g><defs><mask id="SvgjsMask1234"><rect width="1440" height="560" fill="#ffffff"></rect></mask><radialGradient cx="100%" cy="100%" r="1545.06" gradientUnits="userSpaceOnUse" id="SvgjsRadialGradient1235"><stop stop-color="#0e2a47" offset="0"></stop><stop stop-color="rgba(0, 158, 89, 1)" offset="1"></stop></radialGradient><radialGradient id="SvgjsRadialGradient1236"><stop stop-color="#ffffff" offset="0.1"></stop><stop stop-color="rgba(17, 255, 123, 1)" offset="0.2"></stop><stop stop-color="rgba(17, 255, 123, 0)" offset="1"></stop></radialGradient></defs></svg>